<svg xmlns="http://www.w3.org/2000/svg" viewBox="40 25 172 50"><path d="M81.077 27.792v44.376h5.228v1.696H69.48v-1.777h4.992V30.78L62.406 73.864h-2.634l-12.5-44.336v42.559h5.307v1.777H40v-1.777h5.307V27.792h-4.875v-1.656H53.05L63.27 62.72h.315l9.945-36.583h12.736v1.656h-5.19zm22.725 0v44.376h5.09v1.696h-16.94v-1.696H97.4V27.792h-5.05v-1.656h16.503v1.656h-5.05zm32.549 44.374c6.098 0 8.365-10.628 8.404-12.164l1.407-.04v13.902H114.54v-1.698h5.356V27.753h-5.356v-1.617h17.356v1.617h-5.746v44.413h10.202zm33.882 0c6.097 0 8.365-10.628 8.404-12.164l1.407-.04v13.902H148.42v-1.698h5.355V27.753h-5.355v-1.617h17.355v1.617h-5.746v44.413h10.203zm36.409-24.263c2.871 2.016 5.025 5.484 5.025 9.88 0 10.604-7.418 17.217-14.357 17.217-6.38 0-10.408-4.274-10.408-4.274l-2.513 3.024h-.957V60.605h.877c1.197 5.927 5.942 12.339 12.881 12.339 2.912 0 11.565-2.34 11.565-10.888 0-9.032-10.607-9.596-15.872-11.774-5.862-2.42-9.411-5.726-9.411-10.685 0-9.718 5.862-14.597 12.323-14.597 6.42 0 8.933 3.71 8.933 3.71l2.711-2.581h.958v11.29h-1.277c0-2.338-4.227-10.403-10.767-10.403-4.427 0-9.65 2.5-9.65 7.863 0 9.234 12.68 7.944 19.939 13.024z"></path></svg>